<svg xmlns="http://www.w3.org/2000/svg" xmlns:xlink="http://www.w3.org/1999/xlink" viewBox="0 0 400 401">
  <defs>
    <style>
      .cls-1 {
        clip-path: url(#clip-default);
      }

      .cls-2 {
        fill: #192a56;
      }

      .cls-3 {
        opacity: 0.2;
      }

      .cls-4 {
        fill: #d0cde1;
      }

      .cls-5 {
        fill: #2f2e41;
      }

      .cls-6 {
        fill: rgba(255,255,255,0);
      }
    </style>
    <clipPath id="clip-default">
      <rect width="400" height="401"/>
    </clipPath>
  </defs>
  <g id="default" class="cls-1">
    <rect class="cls-6" width="400" height="401"/>
    <g id="default-2" data-name="default" transform="translate(0)">
      <path id="Path_1" data-name="Path 1" class="cls-2" d="M662,312a199.328,199.328,0,0,1-16.107,78.758l-.663,1.527A200.33,200.33,0,0,1,427.3,509q-1.8-.319-3.6-.663a198.21,198.21,0,0,1-36.177-10.669q-2.849-1.145-5.657-2.373c-1.278-.556-2.556-1.13-3.823-1.722A200.247,200.247,0,0,1,262,312c0-110.457,89.544-200,200-200S662,201.545,662,312Z" transform="translate(-262 -112)"/>
      <path id="Path_2" data-name="Path 2" class="cls-3" d="M482.777,597.335q-1.8-.32-3.6-.663c-.781-22.669-3.462-69.2-12.6-117.924-5-26.669-11.941-54.006-21.568-78.445a244.14,244.14,0,0,0-11.284-24.758C424,357.173,412.2,341.705,397.89,331.226L400,328.35q17.849,13.083,32.083,36.734,4.269,7.083,8.2,15.113,4.216,8.592,8.041,18.243,2.441,6.142,4.716,12.71,9.905,28.518,16.84,65.077,1.536,8.077,2.923,16.55A839.172,839.172,0,0,1,482.777,597.335Z" transform="translate(-317.482 -200.331)"/>
      <path id="Path_3" data-name="Path 3" class="cls-3" d="M438.844,692.376c-1.278-.556-2.556-1.13-3.823-1.722a290.515,290.515,0,0,0-7.663-45.912,150.635,150.635,0,0,0-6.988-20.829c-4.74-11.095-10.876-20.527-18.811-26.344l2.107-2.87c8.308,6.083,14.716,15.7,19.669,26.947,5.58,12.675,9.3,27.426,11.781,41.521C436.956,673.636,438.116,683.748,438.844,692.376Z" transform="translate(-318.98 -309.076)"/>
      <ellipse id="Ellipse_1" data-name="Ellipse 1" class="cls-3" cx="17.804" cy="17.804" rx="17.804" ry="17.804" transform="translate(42.706 95.204)"/>
      <ellipse id="Ellipse_2" data-name="Ellipse 2" class="cls-3" cx="17.804" cy="17.804" rx="17.804" ry="17.804" transform="translate(48.439 248.465)"/>
      <path id="Path_4" data-name="Path 4" class="cls-3" d="M483.037,328.3c-3.776,21.3,4.559,40.587,4.559,40.587s14.456-15.248,18.231-36.548-4.559-40.587-4.559-40.587S486.813,307,483.037,328.3Z" transform="translate(-351.845 -185.39)"/>
      <path id="Path_5" data-name="Path 5" class="cls-3" d="M361.058,421.206c20.316,7.429,40.732,2.662,40.732,2.662s-12.524-16.812-32.841-24.242-40.732-2.662-40.732-2.662S340.741,413.776,361.058,421.206Z" transform="translate(-289.035 -227.73)"/>
      <path id="Path_6" data-name="Path 6" class="cls-3" d="M362.026,655.82c14.24,5.207,28.57,1.81,28.57,1.81s-8.758-11.839-23-17.047-28.57-1.81-28.57-1.81S347.786,650.613,362.026,655.82Z" transform="translate(-293.449 -326.626)"/>
      <ellipse id="Ellipse_3" data-name="Ellipse 3" class="cls-4" cx="77.97" cy="77.971" rx="77.97" ry="77.971" transform="translate(121.619 88.349)"/>
      <path id="Path_7" data-name="Path 7" class="cls-4" d="M547.833,477.153s9.746,46.3,9.746,51.169,46.295,26.8,46.295,26.8l41.422-7.31,14.619-43.859s-24.366-36.549-24.366-51.169Z" transform="translate(-378.701 -251.136)"/>
      <path id="Path_8" data-name="Path 8" class="cls-5" d="M697.027,556.227l-.663,1.527A200.331,200.331,0,0,1,478.429,674.471q-1.8-.32-3.6-.663a198.229,198.229,0,0,1-36.177-10.669q-2.849-1.145-5.657-2.373c-1.278-.556-2.556-1.13-3.822-1.722a199.756,199.756,0,0,1-32.692-19.1l-9.243-26.811,5.2-3.964,10.686-8.16,11.4-8.7,2.965-2.266,44.74-34.154,3.3-2.521,23.255-17.752.006-.006s25.148,40.977,61.7,28.793S586.24,517.28,586.24,517.28Z" transform="translate(-313.134 -277.467)"/>
      <path id="Path_9" data-name="Path 9" class="cls-5" d="M472.382,257.168s24.755-53.637,72.2-41.259,74.266,30.945,76.329,49.511-1.032,46.417-1.032,46.417-5.157-38.165-38.164-29.913-84.58,2.063-84.58,2.063l-8.252,74.267s-9.283-13.409-19.6-5.157S439.375,273.672,472.382,257.168Z" transform="translate(-340.409 -153.667)"/>
      <path id="Path_10" data-name="Path 10" class="cls-5" d="M431.828,729.276q-2.849-1.145-5.657-2.373c-1.278-.556-2.556-1.13-3.822-1.722a200.493,200.493,0,0,1-51.828-34.734,70.128,70.128,0,0,1,9.893-11.178h36.55l5.479,18.426Z" transform="translate(-306.307 -343.604)"/>
      <path id="Path_11" data-name="Path 11" class="cls-5" d="M855.131,576.32l31.355,5.539A199.968,199.968,0,0,1,852.9,634.267Z" transform="translate(-503.255 -301.572)"/>
    </g>
  </g>
</svg>
