<svg xmlns="http://www.w3.org/2000/svg" xmlns:xlink="http://www.w3.org/1999/xlink" viewBox="0 0 759 370">
  <defs>
    <style>
      .cls-1 {
        clip-path: url(#clip-Artboard_1);
      }

      .cls-2 {
        fill: #e4ebf7;
      }

      .cls-3, .cls-4 {
        fill: #fff;
      }

      .cls-4 {
        stroke: #0f22d3;
        stroke-miterlimit: 10;
        stroke-width: 1.61px;
      }

      .cls-5 {
        fill: #98b2d8;
      }

      .cls-6 {
        fill: #b1c3e8;
      }

      .cls-7 {
        fill: #b7cae5;
      }

      .cls-8 {
        fill: #97b3d1;
      }

      .cls-9 {
        fill: #ced9ea;
      }

      .cls-10 {
        fill: #b6c5dd;
      }

      .cls-11 {
        fill: #5d7ca0;
      }

      .cls-12 {
        fill: #799cbf;
      }

      .cls-13 {
        fill: #f2f4f9;
      }

      .cls-14 {
        fill: #c1cfe5;
      }

      .cls-15 {
        fill: url(#linear-gradient);
      }

      .cls-16, .cls-19 {
        fill: #1f395e;
      }

      .cls-16 {
        opacity: 0.22;
      }

      .cls-17 {
        fill: url(#linear-gradient-2);
      }

      .cls-18 {
        fill: url(#linear-gradient-3);
      }

      .cls-20 {
        fill: url(#linear-gradient-4);
      }

      .cls-21 {
        fill: #3150bc;
      }

      .cls-22 {
        fill: #feb19e;
      }

      .cls-23 {
        fill: #ff856a;
      }

      .cls-24 {
        fill: url(#linear-gradient-5);
      }

      .cls-25, .cls-26, .cls-36 {
        fill: #9abced;
      }

      .cls-25 {
        opacity: 0.6;
      }

      .cls-27 {
        fill: #c1c8d3;
      }

      .cls-28 {
        fill: url(#linear-gradient-6);
      }

      .cls-29 {
        fill: url(#linear-gradient-7);
      }

      .cls-30 {
        fill: #4f7eb7;
      }

      .cls-31, .cls-34 {
        fill: #7ca6d8;
      }

      .cls-31 {
        opacity: 0.71;
      }

      .cls-32 {
        fill: #ea9ba1;
      }

      .cls-33, .cls-36 {
        opacity: 0.5;
      }

      .cls-35 {
        fill: #e83f54;
      }

      .cls-37 {
        fill: rgba(255,255,255,0);
      }
    </style>
    <linearGradient id="linear-gradient" x1="0.5" y1="0.944" x2="0.5" y2="0.102" gradientUnits="objectBoundingBox">
      <stop offset="0" stop-color="#1f3a65"/>
      <stop offset="1" stop-color="#294a7a"/>
    </linearGradient>
    <linearGradient id="linear-gradient-2" x1="0.5" y1="1.04" x2="0.5" y2="0.166" xlink:href="#linear-gradient"/>
    <linearGradient id="linear-gradient-3" x1="0.5" y1="1.031" x2="0.5" y2="0.253" xlink:href="#linear-gradient"/>
    <linearGradient id="linear-gradient-4" x1="0.703" y1="0.96" x2="0.33" y2="-0.043" gradientUnits="objectBoundingBox">
      <stop offset="0" stop-color="#3855e1"/>
      <stop offset="1" stop-color="#5c7ef7"/>
    </linearGradient>
    <linearGradient id="linear-gradient-5" x1="0.508" y1="0.868" x2="0.491" y2="0.143" gradientUnits="objectBoundingBox">
      <stop offset="0" stop-color="#3f2323"/>
      <stop offset="1" stop-color="#5e3434"/>
    </linearGradient>
    <linearGradient id="linear-gradient-6" x1="0" y1="0.5" x2="1" y2="0.5" xlink:href="#linear-gradient"/>
    <linearGradient id="linear-gradient-7" x1="0.948" y1="-0.448" x2="0.223" y2="0.846" gradientUnits="objectBoundingBox">
      <stop offset="0" stop-color="#e2e8f7"/>
      <stop offset="1" stop-color="#fff"/>
    </linearGradient>
    <clipPath id="clip-Artboard_1">
      <rect width="759" height="370"/>
    </clipPath>
  </defs>
  <g id="Artboard_1" data-name="Artboard 1" class="cls-1">
    <rect class="cls-37" width="759" height="370"/>
    <g id="OBJECTS" transform="translate(-50.349 -104.036)">
      <g id="Group_37" data-name="Group 37" transform="translate(55.349 104.001)">
        <g id="Group_1" data-name="Group 1" transform="translate(105.662)">
          <path id="Path_1" data-name="Path 1" class="cls-2" d="M706.21,315.219a369.4,369.4,0,0,1-3.949,58.335c-.189,1.3-.4,2.607-.623,3.873-1.4,8.444-3.1,16.322-5.025,23.594q-.51,1.871-1.021,3.684c-7.4,25.881-17.927,43.374-29.148,49.834H195.06s-40.181-34.834-48.247-84.594c-.208-1.266-.4-2.532-.548-3.815-3.136-24.766,1.908-52.97,23.613-82.309,9.9-13.355,22.915-22.65,37.858-29.053,1.171-.492,2.323-.964,3.514-1.417,22.159-8.671,48.191-11.391,74.336-11.807,1.322-.02,2.644-.039,3.966-.039,15.567-.113,31.094.529,45.81,1.116,1.4.075,2.777.131,4.156.189,23.765,1,45.186,1.737,60.734-1.114h.019c1.436-.265,2.8-.568,4.118-.907h.019C421.619,236.577,430.1,226.81,424,205.8c-11.827-40.748.283-70.614,26.635-87.107,1.342-.849,2.739-1.662,4.156-2.437,14.9-8.085,33.739-12.317,55.048-12.259,1.492,0,3,.038,4.534.075,18.116.548,37.894,4.118,58.429,10.937a185.705,185.705,0,0,1,30.887,13.431c1.171.643,2.342,1.3,3.476,1.984a179.848,179.848,0,0,1,47.473,39.86c.887,1.019,1.737,2.059,2.588,3.117C691.1,215.154,705.87,269.05,706.21,315.219Z" transform="translate(-145.416 -104.001)"/>
          <path id="Path_2" data-name="Path 2" class="cls-3" d="M632.474,397.414q-.51,1.871-1.021,3.684a156.425,156.425,0,0,1-21.8-9.748c-34.57-18.777-78.586-60.6-91.924-153.318-5.743-39.973,1.587-78.038,21.82-113.194,1.171.643,2.342,1.3,3.476,1.984-17.758,30.829-27.732,67.686-21.554,110.662,13.11,91.073,56.067,132.085,89.806,150.446A148.367,148.367,0,0,0,632.474,397.414Z" transform="translate(-81.276 -100.393)"/>
          <path id="Path_3" data-name="Path 3" class="cls-3" d="M630.325,363.77c-.189,1.3-.4,2.607-.623,3.873-21.838-10.258-49.362-32.568-62.208-81-12.411-46.906-7.463-88.541,15.208-126.134.887,1.019,1.737,2.059,2.588,3.117-21.556,36.421-26.145,76.715-14.131,122.054C583.439,332.014,609.451,353.664,630.325,363.77Z" transform="translate(-73.481 -94.217)"/>
          <path id="Path_4" data-name="Path 4" class="cls-3" d="M486.945,183.171c1.832,61.547-5.177,101.312-22.726,128.968-18.381,28.979-49.04,46.491-99.422,56.787a138.053,138.053,0,0,1-27.77,2.889c-28.355,0-55.067-9.237-78.472-27.3-27.222-21.025-48.058-52.686-60.016-89.75,1.171-.492,2.323-.964,3.514-1.417,11.713,36.44,32.134,67.572,58.827,88.182,30,23.179,65.683,31.358,103.163,23.708,93.7-19.174,122.639-63.4,119.126-181.957-1-33.664,4.874-60.224,17.474-79.284,1.492,0,3,.038,4.534.075C492.064,122.588,485.943,149.111,486.945,183.171Z" transform="translate(-136.218 -104)"/>
          <path id="Path_5" data-name="Path 5" class="cls-3" d="M358.538,308.724a73.765,73.765,0,0,1-12.014.983c-30.206,0-64.8-18.306-81.627-69.972,1.322-.02,2.644-.039,3.966-.039,18.551,55.464,58.316,70.351,89.052,65.306,41.523-6.8,81.458-49.55,73.732-115.386-3.326-28.241-3.476-52.346-1.7-72.73,1.342-.849,2.739-1.662,4.156-2.437-2.059,20.761-2.135,45.508,1.3,74.732C443.4,257.341,401.761,301.641,358.538,308.724Z" transform="translate(-124.727 -102.191)"/>
          <path id="Path_6" data-name="Path 6" class="cls-3" d="M376.354,220.6a48.115,48.115,0,0,1-8.368,19.079c-5.8,7.594-13.942,12.09-24.2,13.356a29.616,29.616,0,0,1-3.626.226,26.438,26.438,0,0,1-17.38-6.517c-6.838-5.744-11.825-14.66-15.453-24.312,1.4.075,2.777.131,4.156.189,3.362,8.538,7.82,16.265,13.733,21.233a22.842,22.842,0,0,0,18.1,5.44c9.219-1.133,16.491-5.137,21.667-11.882a42.954,42.954,0,0,0,7.236-15.906h.019C373.672,221.242,375.032,220.939,376.354,220.6Z" transform="translate(-117.38 -83.811)"/>
          <path id="Path_7" data-name="Path 7" class="cls-3" d="M257.577,415.85h-4.118c-16.945-38.8-41.371-64.664-72.692-76.924a118.927,118.927,0,0,0-34.079-7.67c-.208-1.266-.4-2.532-.548-3.815a122.943,122.943,0,0,1,36.006,7.972C214.846,348.22,240.2,375.234,257.577,415.85Z" transform="translate(-145.291 -65.311)"/>
        </g>
        <g id="Group_36" data-name="Group 36" transform="translate(0 23.834)">
          <path id="Path_8" data-name="Path 8" class="cls-4" d="M463.007,462.485Z" transform="translate(15.239 -65.762)"/>
          <g id="Group_5" data-name="Group 5" transform="translate(100.389 98.001)">
            <g id="Group_3" data-name="Group 3" transform="translate(0 72.727)">
              <g id="Group_2" data-name="Group 2">
                <path id="Path_9" data-name="Path 9" class="cls-5" d="M176.624,308.882l-11.675,12.034-4.873-7.16-1.625-2.4c-5.195,1.3-12.865-8.86-15.944-14.282-3.06-5.44,9.219-13.828,9.219-13.828-2-6.008-10.049-9.785-10.276-11.448-.228-1.644,1.775-3.42,9.086,0,7.33,3.439,13.7,15.585,13.7,15.585,1.3-3.534-4.477-13.091-3.419-14.168,1.058-1.058,6.725.245,11.089,9.445,4.383,9.219,1.776,20.081,1.776,20.081l.056.1Z" transform="translate(-140.832 -269.845)"/>
                <path id="Path_10" data-name="Path 10" class="cls-6" d="M151.382,280.412s8.674,9.923,7.738,13.819-5.3-.624-5.3-.624,4.015,4.639,2.716,6.174-6.139-2.362-6.139-2.362,5.785,7.2,0,6.139-13.053-11.973-7.471-13.071c0,0-.676-7.945,4.4-5.229C147.323,285.258,145.051,278.636,151.382,280.412Z" transform="translate(-140.921 -268.068)"/>
              </g>
              <path id="Path_11" data-name="Path 11" class="cls-7" d="M253.9,425.01s9.767-28.525,4.629-56.654a1.1,1.1,0,0,1-.039-.189,1.4,1.4,0,0,0-.038-.226q-.227-1.105-.453-2.21a118.724,118.724,0,0,1-13.489,9.862c-9.389,5.913-21.913,11.787-31.529,9.03-17.644-5.045-43.449-39.35-55.426-66.439a31.409,31.409,0,0,1,17.947-11.732s23.935,31.887,45.035,39.444a155.633,155.633,0,0,0,20.138-33.38c5.629-12.657,14.073-20.666,24.728-24.974a57.66,57.66,0,0,1,20.156-3.966l18.495-8.633a69.567,69.567,0,0,1,7.67.623c8.671,1.133,23.084,4.308,34.739,13.186,17.947,13.677,43.77,136.259,43.77,136.259Z" transform="translate(-138.04 -268.963)"/>
              <path id="Path_12" data-name="Path 12" class="cls-8" d="M245.659,360.2c-.15-.812-.32-1.625-.49-2.437a118.726,118.726,0,0,1-13.489,9.862l5.46-46.7C242.694,342.314,245.358,358.3,245.659,360.2Z" transform="translate(-125.206 -261)"/>
              <path id="Path_13" data-name="Path 13" class="cls-9" d="M295.811,275.564c-2.853,18.136-21.008,34.892-34.118,34.666-10.541-.19-12.09-15.3-12.2-22.689a57.66,57.66,0,0,1,20.156-3.966l18.495-8.633A69.567,69.567,0,0,1,295.811,275.564Z" transform="translate(-122.122 -268.963)"/>
              <path id="Path_14" data-name="Path 14" class="cls-8" d="M262.223,400.185s41.649-43.342,43.46-88.917l12.279,38.411-4.722,39.992Z" transform="translate(-119.917 -262.673)"/>
              <path id="Path_15" data-name="Path 15" class="cls-5" d="M268.075,405.586H221.439s.118-6.376,7.32-8.5,11.807-11.1,33.413-9.918Z" transform="translate(-126.979 -249.549)"/>
              <path id="Path_16" data-name="Path 16" class="cls-10" d="M310.415,366.317s-21.971,12.636-56.57,21.61c0,0-4.8,11.57,3.622,21.252H324.4Z" transform="translate(-121.604 -253.141)"/>
            </g>
            <g id="Group_4" data-name="Group 4" transform="translate(98.172)">
              <path id="Path_17" data-name="Path 17" class="cls-11" d="M233.43,261.3s-9.945-13.728-8.722-22.972,9.779-7.072,9.779-7.072-.4-22.46,20.393-16.717c0,0-.458-6.858,4.081-6.68s11.66,10.619,11.66,10.619,1.767-7.736,4.842-5.91,4.023,9.811,10.445,13.654,10.394,8.817,5.352,24.4S290,267.307,288.2,275.308c-1.71,7.6-3.076,12.222-7.793,12.649s-22.771-18.62-22.771-18.62Z" transform="translate(-224.603 -207.853)"/>
              <path id="Path_18" data-name="Path 18" class="cls-5" d="M287.212,278.362s-11.58,28.09-23.746,25.975c-6.045-1.058-7.386-4.742-7.444-9.011-.056-5.572,2.116-12.109-1.171-14.849l14.583-20.723,3.212-4.572A75.573,75.573,0,0,0,287.212,278.362Z" transform="translate(-219.366 -199.658)"/>
              <path id="Path_19" data-name="Path 19" class="cls-12" d="M256.023,294.651c-.056-5.572,2.116-12.109-1.171-14.849l14.583-20.723c1.247,1.455,2.135,4.043,2.494,8.1C273.856,288.587,262.541,293.556,256.023,294.651Z" transform="translate(-219.366 -198.983)"/>
              <path id="Path_20" data-name="Path 20" class="cls-5" d="M230.919,244.473s3.943,36.185,18.708,44.33c12.832,7.078,28.417-14.331,28.1-24.921,0,0,5.594-4.271,4.66-11.186s-8.244-4.621-9.12,6.522c0,0-5.944-.423-7.044-14.35-3.732,3.09-7.759,2.138-11.99-1.621,0,0-2.1,7.751-12.9-1.307C241.335,241.939,237.26,247.473,230.919,244.473Z" transform="translate(-223.51 -201.951)"/>
            </g>
          </g>
          <g id="Group_11" data-name="Group 11" transform="translate(410.828 45.334)">
            <g id="Group_6" data-name="Group 6" transform="translate(20.549 225.938)">
              <path id="Path_21" data-name="Path 21" class="cls-11" d="M535.482,363.6s19.059,31.8,25.66,47.227h-67.2a275.844,275.844,0,0,0-10.563-36.45Z" transform="translate(-412.612 -354.156)"/>
              <path id="Path_22" data-name="Path 22" class="cls-12" d="M519.716,372.08c-3.678,12.188-9.285,22.593-17.606,30.495l2.272,9.648-81.327-1,9.053-55.67Z" transform="translate(-423.056 -355.55)"/>
            </g>
            <g id="Group_7" data-name="Group 7" transform="translate(243.227 33.741)">
              <path id="Path_23" data-name="Path 23" class="cls-12" d="M614.426,226.9s2.691-16.861,8.044-22.842,19.992-14.831,21.724-11.682S631.286,205.4,631.286,205.4s6.612-1.574,12.279,8.186S630.971,230.9,630.971,230.9l-3.622,8.186-14.483-9.131Z" transform="translate(-612.867 -191.721)"/>
              <path id="Path_24" data-name="Path 24" class="cls-5" d="M631.206,203.825s-8.162,8.3-6.969,10.669,5.692-1.355,5.692-1.355-3.672,5.59-.827,7.03,7.253-3.388,7.253-3.388-3.672,5.082-1.56,6.014,13.4-7.028,11.382-8.893-3.121-.339-3.121-.339,2.363-3.979,0-5.25a2.725,2.725,0,0,0-3.855,1.1s1.927-3.048.367-4.234-4.865.339-4.865.339S635.786,200.438,631.206,203.825Z" transform="translate(-610.919 -189.827)"/>
              <path id="Path_25" data-name="Path 25" class="cls-5" d="M625.579,203.491c-2.48-.709-7.518,4.447-7.518,4.447-1.981,2.549-2.386,7.629-2.466,9.971-.253,6.542-2.729,10.022-2.729,10.022l7.35,4.634c5.692-7.332,3.829-16.722,2.911-20.045C625.9,208.376,627.059,203.914,625.579,203.491Z" transform="translate(-612.867 -189.694)"/>
            </g>
            <g id="Group_8" data-name="Group 8" transform="translate(0 68.2)">
              <path id="Path_26" data-name="Path 26" class="cls-7" d="M666.235,235.734s-24.559,65.4-63.587,71.2c-17.455,2.588-30.64,2.852-39.859,2.362-10.995-.567-16.4-2.229-16.795-2.343a.018.018,0,0,1-.019-.019s-10.711,19.948-3.778,48.606c6.913,28.639,9.445,34.627,9.445,34.627s-52.611,38.688-95.4,3.457l-38.613-60.035L405.54,314.773s11.109-36.478,42.429-60.185l.019-.02a95.857,95.857,0,0,1,44.545-18.739,113.226,113.226,0,0,1,30.452-.284s8.5,2.4,22.33,7.462c7.442,2.719,16.435,6.214,26.465,10.522,28.658,12.279,36.536,15.943,36.536,15.943s30.528-30.111,38.406-48.379C646.721,221.094,662.456,222.68,666.235,235.734Z" transform="translate(-405.54 -221.094)"/>
              <path id="Path_27" data-name="Path 27" class="cls-8" d="M466.173,259.026c-.141,14.657-3.274,28.858-4.653,39.89L485.788,294l37.76,37.333s4.784,10.94-4.955,12.828c-7.631,1.48-43.3,6.441-43.3,6.441-8.219,11.186-11.933,28.3-16.032,44.9l-36.209-62.915Z" transform="translate(-402.507 -214.526)"/>
              <path id="Path_28" data-name="Path 28" class="cls-9" d="M510.145,267.112c-16.906-4.288-25.8-19.5-30.452-33.285a113.227,113.227,0,0,1,30.452-.284s8.5,2.4,22.33,7.462C534.1,253.076,533.513,273.025,510.145,267.112Z" transform="translate(-392.7 -219.092)"/>
              <path id="Path_29" data-name="Path 29" class="cls-8" d="M546.651,273.427a184.464,184.464,0,0,0-4.591,26.807c-10.995-.567-16.4-2.229-16.795-2.343a.018.018,0,0,1-.019-.019S534.844,281.456,546.651,273.427Z" transform="translate(-384.812 -212.032)"/>
            </g>
            <g id="Group_9" data-name="Group 9" transform="translate(0 99.182)">
              <rect id="Rectangle_2" data-name="Rectangle 2" class="cls-13" width="47.179" height="69.424" rx="1.946" transform="matrix(0.99, -0.144, 0.144, 0.99, 65.236, 29.796)"/>
              <path id="Path_30" data-name="Path 30" class="cls-5" d="M481.362,293.789l6.455-2.519s6.139-17,13.775-6.3c0,0,5.273-3.148,5.116-4.879s-.237-4.25-.237-4.25,10.686,2.309,8.3,17.211-11.523,13.014-20.5,13.171l-11.178,4.408Z" transform="translate(-392.411 -242.596)"/>
              <path id="Path_31" data-name="Path 31" class="cls-14" d="M498.653,319.476s-50.287,33.286-72.012,17.229a87.493,87.493,0,0,1-9.011-7.689L405.54,310.2s11.109-36.478,42.429-60.185l.019-.02c10.382-4.663,21.229-2.966,21.788,6.652,1.328,22.912-18.267,37-20.692,47.4l45.074-9.125S501.488,302.7,498.653,319.476Z" transform="translate(-405.54 -247.503)"/>
            </g>
            <g id="Group_10" data-name="Group 10" transform="translate(88.614)">
              <path id="Path_32" data-name="Path 32" class="cls-11" d="M544.687,210.752s7.186-15.353,4.247-24.2S538,181.443,538,181.443s-3.831-22.134-23.172-12.584c0,0-.84-6.822-5.265-5.793s-9.454,12.622-9.454,12.622-3.19-7.265-5.867-4.894-2.106,10.393-7.691,15.374-8.551,10.615-.669,24.972,4.375,16.153,7.648,23.673c3.109,7.141,5.319,11.424,10.033,10.957s18.863-22.57,18.863-22.57Z" transform="translate(-481.075 -162.96)"/>
              <path id="Path_33" data-name="Path 33" class="cls-5" d="M489.935,238.069s11.117,27.4,28.591,22.913c5.943-1.526,5.978-7.912,5.231-12.115-.992-5.484-4.355-11.5-1.641-14.8L503.9,216.452l-4.014-3.887A75.592,75.592,0,0,1,489.935,238.069Z" transform="translate(-479.541 -154.371)"/>
              <path id="Path_34" data-name="Path 34" class="cls-12" d="M521.857,248.293c-.992-5.484-4.355-11.5-1.641-14.8L502,215.878c-.951,1.664-1.337,4.372-.926,8.429C503.2,245.69,515.25,248.442,521.857,248.293Z" transform="translate(-477.641 -153.797)"/>
              <path id="Path_35" data-name="Path 35" class="cls-5" d="M541.968,194.405s2.932,36.281-10.039,47.056c-11.273,9.365-30.605-8.732-32.289-19.193,0,0-6.3-3.143-6.68-10.109s7.228-6.089,10.183,4.69c0,0,5.759-1.535,4.22-15.419,4.247,2.332,8.023.641,11.472-3.847,0,0,3.518,7.217,12.426-3.711C531.262,193.874,536.306,198.543,541.968,194.405Z" transform="translate(-479.019 -157.607)"/>
            </g>
          </g>
          <g id="Group_17" data-name="Group 17" transform="translate(272.303 103.473)">
            <g id="Group_12" data-name="Group 12" transform="translate(0 88.457)">
              <path id="Path_36" data-name="Path 36" class="cls-15" d="M485.3,402.7v.019a25.274,25.274,0,0,1-2.324,6.1c-9.125,16.681-48.644,13.942-48.644,13.942h-90.2c-37.329,0-52.29-.926-55.861-12.581a15.135,15.135,0,0,1-.49-1.984c-2.532-13.545,10.068-57.617,33.361-87.842,11.92-15.453,24.236-23.594,35.212-27.846a70.807,70.807,0,0,1,26.24-4.591c11.448,0,20.685.851,28.525,2.683,21.044,4.931,32.058,16.831,48.567,37.933C479.882,354.321,489.818,384.6,485.3,402.7Z" transform="translate(-287.461 -287.919)"/>
              <path id="Path_37" data-name="Path 37" class="cls-16" d="M320.872,385.261c9.789-15.4,12.866-36.751,15.585-58.427l8.5,44.079h73.674l13.538-44.079c-.319,20.6,2.507,40.806,12.279,60.136C444.451,386.97,396.277,441.484,320.872,385.261Z" transform="translate(-281.676 -281.181)"/>
              <path id="Path_38" data-name="Path 38" class="cls-17" d="M348.994,408.023H344.1c-37.329,0-52.29-.926-55.861-12.581-1.945-9.162.529-18.8,11.694-21.668,17.493-4.5,47.944,13.224,47.944,13.224Z" transform="translate(-287.43 -273.179)"/>
              <path id="Path_39" data-name="Path 39" class="cls-18" d="M467.577,388.57s.019,0,0,.019a25.273,25.273,0,0,1-2.324,6.1c-9.125,16.681-48.644,13.942-48.644,13.942H389.84l3.4-22.669S440.7,363.993,457.7,370.851C466.008,374.194,468.559,381.146,467.577,388.57Z" transform="translate(-269.734 -273.789)"/>
              <path id="Path_40" data-name="Path 40" class="cls-19" d="M400.951,290.6c-.794,10.6-5.177,29.9-26.523,29.9-22.5,0-27.261-19.024-28.242-28a70.807,70.807,0,0,1,26.24-4.591C383.874,287.919,393.111,288.77,400.951,290.6Z" transform="translate(-277.292 -287.919)"/>
            </g>
            <g id="Group_13" data-name="Group 13" transform="translate(47.284 152.913)">
              <path id="Path_41" data-name="Path 41" class="cls-3" d="M422.751,403.967H336.326a3.779,3.779,0,0,1-3.779-3.779h0a3.778,3.778,0,0,1,3.779-3.778h86.425a3.778,3.778,0,0,1,3.779,3.778h0A3.779,3.779,0,0,1,422.751,403.967Z" transform="translate(-326.938 -333.59)"/>
              <path id="Path_42" data-name="Path 42" class="cls-20" d="M434.044,348.264l-.321,1.965v.019l-8.954,55.444H336.681l-8.86-57.466a4.662,4.662,0,0,1,4.591-5.365h97.042A4.653,4.653,0,0,1,434.044,348.264Z" transform="translate(-327.766 -342.862)"/>
              <path id="Path_43" data-name="Path 43" class="cls-21" d="M432.337,349.158,423.384,404.6H335.768l29.7-3.1A79.87,79.87,0,0,0,432.337,349.158Z" transform="translate(-326.381 -341.772)"/>
            </g>
            <g id="Group_16" data-name="Group 16" transform="translate(55.103)">
              <g id="Group_14" data-name="Group 14" transform="translate(23.519 82.166)">
                <path id="Path_44" data-name="Path 44" class="cls-22" d="M372.634,313.406h-.587a20.663,20.663,0,0,1-8.5-1.719,15.333,15.333,0,0,1-8.783-14.377c.019-.623.019-1.227.019-1.831.019-5.045-.3-9.239-.3-9.239v-2.266l31.736-1.417a73.311,73.311,0,0,0,1.266,11.883c.019.056.019.094.038.151A15.736,15.736,0,0,1,372.634,313.406Z" transform="translate(-354.479 -282.557)"/>
                <path id="Path_45" data-name="Path 45" class="cls-23" d="M387.481,294.44c-13.224,15.528-26.805,6.461-32.7,1.039.019-5.045-.3-9.239-.3-9.239v-2.266l31.736-1.417A73.311,73.311,0,0,0,387.481,294.44Z" transform="translate(-354.479 -282.557)"/>
              </g>
              <g id="Group_15" data-name="Group 15">
                <path id="Path_46" data-name="Path 46" class="cls-22" d="M346.386,274.763s9.84,27.739,26.252,27.739,23.234-29.87,23.234-29.87V246.657H345.127Z" transform="translate(-332.579 -206.607)"/>
                <path id="Path_47" data-name="Path 47" class="cls-22" d="M342.3,257.275s-4.833.885-4.006,6.434,5.863,12.279,9.957,8.738Z" transform="translate(-333.778 -204.768)"/>
                <path id="Path_48" data-name="Path 48" class="cls-22" d="M392.214,255.3s4.908.219,4.845,5.829-4.14,12.962-8.677,10.011Z" transform="translate(-325.089 -205.111)"/>
                <path id="Path_49" data-name="Path 49" class="cls-24" d="M401.555,262.7a129.748,129.748,0,0,1-3.832,15.84s-3.889-.784-5.148-11.016a13.9,13.9,0,0,1-13.679-6.3s-1.259,7.871-9.366,2.283c-5.406,4.413-11.8,4.878-19.049,1.889,0,0,1.22,10.318-2.244,15.277,0,0-1.259-4.077-5.28-15.65a3.894,3.894,0,0,0-2.83,1.635s-8.694-17-4.6-25.191,9.6-5.038,9.6-5.038-2.047-11.177,10.075-15.27,12.121-9.6,14.011-8.5,2.676,5.195,2.676,5.195,20.937-2.2,26.6,20.307c0,0,15.121.483,6.149,25.828C404.645,263.991,404.054,262.941,401.555,262.7Z" transform="translate(-334.431 -212.518)"/>
              </g>
            </g>
          </g>
          <path id="Path_50" data-name="Path 50" class="cls-4" d="M408.632,282.557" transform="translate(5.824 -96.917)"/>
          <g id="Group_19" data-name="Group 19" transform="translate(229.859 177.237)">
            <path id="Path_51" data-name="Path 51" class="cls-25" d="M335.058,275.394H255.942a4.661,4.661,0,0,0-4.661,4.66v47.222a4.661,4.661,0,0,0,4.661,4.661h54.574l14.233,12.615a1.4,1.4,0,0,0,2.248-1.5l-3.847-11.112h11.909a4.661,4.661,0,0,0,4.661-4.661V280.054A4.661,4.661,0,0,0,335.058,275.394Z" transform="translate(-251.281 -275.394)"/>
            <g id="Group_18" data-name="Group 18" transform="translate(9.735 10.149)">
              <path id="Path_52" data-name="Path 52" class="cls-26" d="M279.048,286.53H260.821a1.242,1.242,0,0,1-1.242-1.242h0a1.242,1.242,0,0,1,1.242-1.242h18.226a1.242,1.242,0,0,1,1.242,1.242h0A1.242,1.242,0,0,1,279.048,286.53Z" transform="translate(-259.579 -284.045)"/>
              <path id="Path_53" data-name="Path 53" class="cls-26" d="M322.463,295.711H269.648a1.243,1.243,0,0,1-1.242-1.244h0a1.242,1.242,0,0,1,1.242-1.242h52.814a1.242,1.242,0,0,1,1.242,1.242h0A1.243,1.243,0,0,1,322.463,295.711Z" transform="translate(-258.051 -282.456)"/>
              <path id="Path_54" data-name="Path 54" class="cls-26" d="M323.991,302.243h-63.17A1.243,1.243,0,0,1,259.579,301h0a1.242,1.242,0,0,1,1.242-1.244h63.17A1.242,1.242,0,0,1,325.233,301h0A1.243,1.243,0,0,1,323.991,302.243Z" transform="translate(-259.579 -281.324)"/>
              <path id="Path_55" data-name="Path 55" class="cls-26" d="M323.991,308.775h-63.17a1.242,1.242,0,0,1-1.242-1.242h0a1.243,1.243,0,0,1,1.242-1.244h63.17a1.243,1.243,0,0,1,1.242,1.244h0A1.242,1.242,0,0,1,323.991,308.775Z" transform="translate(-259.579 -280.193)"/>
              <path id="Path_56" data-name="Path 56" class="cls-26" d="M323.991,315.307h-63.17a1.242,1.242,0,0,1-1.242-1.242h0a1.242,1.242,0,0,1,1.242-1.242h63.17a1.242,1.242,0,0,1,1.242,1.242h0A1.242,1.242,0,0,1,323.991,315.307Z" transform="translate(-259.579 -279.062)"/>
            </g>
          </g>
          <g id="Group_21" data-name="Group 21" transform="translate(88.069 248.663)">
            <rect id="Rectangle_3" data-name="Rectangle 3" class="cls-27" width="578.381" height="12.279" rx="1.747" transform="translate(0 78.101)"/>
            <g id="Group_20" data-name="Group 20" transform="translate(428.587)">
              <path id="Rectangle_4" data-name="Rectangle 4" class="cls-28" d="M0,0H24.558a0,0,0,0,1,0,0V22.577a7.649,7.649,0,0,1-7.649,7.649H7.649A7.649,7.649,0,0,1,0,22.577V0A0,0,0,0,1,0,0Z" transform="translate(5.667 47.817)"/>
              <path id="Path_57" data-name="Path 57" class="cls-29" d="M509.208,384.095v-6.552a1.947,1.947,0,0,1,1.947-1.949h2.48a1.947,1.947,0,0,0,1.948-1.949v-2.479a1.948,1.948,0,0,0-1.948-1.949h-7.969a9.917,9.917,0,0,1-9.918-9.917h0a9.918,9.918,0,0,1,9.918-9.918h10.567a1.949,1.949,0,0,0,1.949-1.949v-.886a10.271,10.271,0,0,1,10.271-10.271h0a10.272,10.272,0,0,1,10.272,10.271h0a11.1,11.1,0,0,1-11.1,11.1h-18.6a1.948,1.948,0,0,0-1.949,1.947h0a1.949,1.949,0,0,0,1.949,1.949h10.154a6.789,6.789,0,0,1,6.789,6.789v4.25a6.789,6.789,0,0,1-6.789,6.789h0a1.948,1.948,0,0,0-1.948,1.947v2.774Z" transform="translate(-495.748 -336.278)"/>
            </g>
          </g>
          <g id="Group_35" data-name="Group 35">
            <g id="Group_25" data-name="Group 25" transform="translate(443.486 166.39)">
              <rect id="Rectangle_5" data-name="Rectangle 5" class="cls-25" width="73.438" height="90.44" rx="3.824" transform="translate(0 4.879)"/>
              <path id="Path_58" data-name="Path 58" class="cls-30" d="M505.959,358.476H441.494a5.438,5.438,0,0,1-5.432-5.43V271.579a5.438,5.438,0,0,1,5.432-5.431h64.465a5.437,5.437,0,0,1,5.431,5.431v81.467A5.437,5.437,0,0,1,505.959,358.476Zm-64.465-90.44a3.546,3.546,0,0,0-3.543,3.542v81.467a3.546,3.546,0,0,0,3.543,3.542h64.465a3.545,3.545,0,0,0,3.542-3.542V271.579a3.545,3.545,0,0,0-3.542-3.542Z" transform="translate(-432.913 -266.148)"/>
              <g id="Group_22" data-name="Group 22" transform="translate(11.019 16.659)">
                <path id="Path_59" data-name="Path 59" class="cls-31" d="M457.1,297.507H442.771V280.348H457.1Zm-12.438-1.89h10.549v-13.38H444.66Z" transform="translate(-442.771 -280.348)"/>
                <path id="Path_60" data-name="Path 60" class="cls-32" d="M452.539,292.034l-4.261-4.75,1.405-1.262,2.583,2.884a25.172,25.172,0,0,1,10.6-7.691l.719,1.746c-7.588,3.125-10.373,7.888-10.4,7.936Z" transform="translate(-441.817 -280.198)"/>
                <path id="Path_61" data-name="Path 61" class="cls-26" d="M489.613,286.24H467.389a1.4,1.4,0,0,1-1.4-1.4h0a1.4,1.4,0,0,1,1.4-1.4h22.224a1.4,1.4,0,0,1,1.4,1.4h0A1.4,1.4,0,0,1,489.613,286.24Z" transform="translate(-438.751 -279.814)"/>
                <path id="Path_62" data-name="Path 62" class="cls-26" d="M489.613,292.047H467.389a1.4,1.4,0,0,1-1.4-1.4h0a1.4,1.4,0,0,1,1.4-1.4h22.224a1.4,1.4,0,0,1,1.4,1.4h0A1.4,1.4,0,0,1,489.613,292.047Z" transform="translate(-438.751 -278.808)"/>
              </g>
              <g id="Group_23" data-name="Group 23" transform="translate(11.019 42.948)">
                <path id="Path_63" data-name="Path 63" class="cls-31" d="M457.1,319.916H442.771V302.757H457.1Zm-12.438-1.889h10.549v-13.38H444.66Z" transform="translate(-442.771 -302.757)"/>
                <path id="Path_64" data-name="Path 64" class="cls-32" d="M452.539,314.444l-4.261-4.751,1.405-1.261,2.583,2.884a25.162,25.162,0,0,1,10.6-7.691l.719,1.745c-7.588,3.125-10.373,7.888-10.4,7.936Z" transform="translate(-441.817 -302.607)"/>
                <path id="Path_65" data-name="Path 65" class="cls-26" d="M489.613,308.649H467.389a1.4,1.4,0,0,1-1.4-1.4h0a1.4,1.4,0,0,1,1.4-1.4h22.224a1.4,1.4,0,0,1,1.4,1.4h0A1.4,1.4,0,0,1,489.613,308.649Z" transform="translate(-438.751 -302.222)"/>
                <path id="Path_66" data-name="Path 66" class="cls-26" d="M489.613,314.456H467.389a1.4,1.4,0,0,1-1.4-1.4h0a1.4,1.4,0,0,1,1.4-1.4h22.224a1.4,1.4,0,0,1,1.4,1.4h0A1.4,1.4,0,0,1,489.613,314.456Z" transform="translate(-438.751 -301.217)"/>
              </g>
              <g id="Group_24" data-name="Group 24" transform="translate(11.019 69.238)">
                <path id="Path_67" data-name="Path 67" class="cls-31" d="M457.1,342.326H442.771V325.167H457.1Zm-12.438-1.889h10.549V327.056H444.66Z" transform="translate(-442.771 -325.167)"/>
                <path id="Path_68" data-name="Path 68" class="cls-32" d="M452.539,336.853l-4.261-4.75,1.405-1.262,2.583,2.884a25.172,25.172,0,0,1,10.6-7.691l.719,1.746c-7.588,3.125-10.373,7.888-10.4,7.936Z" transform="translate(-441.817 -325.017)"/>
                <path id="Path_69" data-name="Path 69" class="cls-26" d="M489.613,331.059H467.389a1.4,1.4,0,0,1-1.4-1.4h0a1.4,1.4,0,0,1,1.4-1.4h22.224a1.4,1.4,0,0,1,1.4,1.4h0A1.4,1.4,0,0,1,489.613,331.059Z" transform="translate(-438.751 -324.633)"/>
                <path id="Path_70" data-name="Path 70" class="cls-26" d="M489.613,336.866H467.389a1.4,1.4,0,0,1-1.4-1.4h0a1.4,1.4,0,0,1,1.4-1.4h22.224a1.4,1.4,0,0,1,1.4,1.4h0A1.4,1.4,0,0,1,489.613,336.866Z" transform="translate(-438.751 -323.627)"/>
              </g>
            </g>
            <g id="Group_28" data-name="Group 28" transform="translate(669.949 40.592)">
              <rect id="Rectangle_6" data-name="Rectangle 6" class="cls-25" width="73.438" height="90.44" rx="3.824" transform="translate(0 6.097)"/>
              <path id="Path_71" data-name="Path 71" class="cls-30" d="M700.337,251.246H635.872a5.437,5.437,0,0,1-5.43-5.431V164.349a5.437,5.437,0,0,1,5.43-5.431h64.465a5.438,5.438,0,0,1,5.432,5.431v81.467A5.438,5.438,0,0,1,700.337,251.246Zm-64.465-90.44a3.546,3.546,0,0,0-3.542,3.542v81.467a3.546,3.546,0,0,0,3.542,3.542h64.465a3.545,3.545,0,0,0,3.542-3.542V164.349a3.545,3.545,0,0,0-3.542-3.542Z" transform="translate(-625.718 -158.918)"/>
              <g id="Group_27" data-name="Group 27" class="cls-33" transform="translate(6.469 15.306)">
                <ellipse id="Ellipse_1" data-name="Ellipse 1" class="cls-34" cx="11.334" cy="11.334" rx="11.334" ry="11.334" transform="translate(0 23.369) rotate(-76.661)"/>
                <path id="Path_72" data-name="Path 72" class="cls-35" d="M646.109,185.425l7.556-13.46c6.926,1.732,10.232,8.265,6.926,14.955Z" transform="translate(-629.474 -171.965)"/>
                <g id="Group_26" data-name="Group 26" transform="translate(2.938 35.263)">
                  <path id="Path_73" data-name="Path 73" class="cls-26" d="M641.046,205.329a3.306,3.306,0,1,1-3.306-3.306A3.306,3.306,0,0,1,641.046,205.329Z" transform="translate(-634.434 -202.023)"/>
                  <path id="Path_74" data-name="Path 74" class="cls-26" d="M641.046,217.808a3.306,3.306,0,1,1-3.306-3.306A3.3,3.3,0,0,1,641.046,217.808Z" transform="translate(-634.434 -199.862)"/>
                  <path id="Path_75" data-name="Path 75" class="cls-26" d="M681.23,208.635H654.782a3.306,3.306,0,0,1-3.306-3.306h0a3.306,3.306,0,0,1,3.306-3.306H681.23a3.307,3.307,0,0,1,3.306,3.306h0A3.307,3.307,0,0,1,681.23,208.635Z" transform="translate(-631.483 -202.023)"/>
                  <path id="Path_76" data-name="Path 76" class="cls-26" d="M681.23,221.114H654.782a3.306,3.306,0,0,1-3.306-3.306h0a3.306,3.306,0,0,1,3.306-3.306H681.23a3.306,3.306,0,0,1,3.306,3.306h0A3.306,3.306,0,0,1,681.23,221.114Z" transform="translate(-631.483 -199.862)"/>
                  <path id="Path_77" data-name="Path 77" class="cls-26" d="M641.046,230.489a3.306,3.306,0,1,1-3.306-3.306A3.3,3.3,0,0,1,641.046,230.489Z" transform="translate(-634.434 -197.666)"/>
                  <path id="Path_78" data-name="Path 78" class="cls-26" d="M681.23,233.795H654.782a3.306,3.306,0,0,1-3.306-3.306h0a3.306,3.306,0,0,1,3.306-3.306H681.23a3.307,3.307,0,0,1,3.306,3.306h0A3.306,3.306,0,0,1,681.23,233.795Z" transform="translate(-631.483 -197.666)"/>
                </g>
              </g>
            </g>
            <g id="Group_30" data-name="Group 30" transform="translate(113.547)">
              <rect id="Rectangle_7" data-name="Rectangle 7" class="cls-25" width="73.438" height="105.553" rx="3.824" transform="translate(5.038 5.037)"/>
              <path id="Path_79" data-name="Path 79" class="cls-30" d="M222.034,231.758H157.569a5.437,5.437,0,0,1-5.432-5.431v-96.58a5.437,5.437,0,0,1,5.432-5.431h64.465a5.436,5.436,0,0,1,5.431,5.431v96.58A5.436,5.436,0,0,1,222.034,231.758ZM157.569,126.206a3.547,3.547,0,0,0-3.543,3.542v96.58a3.547,3.547,0,0,0,3.543,3.542h64.465a3.547,3.547,0,0,0,3.542-3.542v-96.58a3.547,3.547,0,0,0-3.542-3.542Z" transform="translate(-152.137 -124.317)"/>
              <g id="Group_29" data-name="Group 29" transform="translate(11.763 18.969)">
                <path id="Rectangle_8" data-name="Rectangle 8" class="cls-34" d="M0,0H4.066a0,0,0,0,1,0,0V14.452a1.208,1.208,0,0,1-1.208,1.208H1.208A1.208,1.208,0,0,1,0,14.452V0A0,0,0,0,1,0,0Z" transform="matrix(0.748, -0.664, 0.664, 0.748, 14.155, 19.565)"/>
                <path id="Path_80" data-name="Path 80" class="cls-34" d="M173.026,140.486a10.862,10.862,0,1,0,10.862,10.862A10.863,10.863,0,0,0,173.026,140.486Zm0,18.265a7.4,7.4,0,1,1,7.4-7.4A7.406,7.406,0,0,1,173.026,158.751Z" transform="translate(-162.164 -140.486)"/>
                <path id="Path_81" data-name="Path 81" class="cls-26" d="M211.757,146.166H194.6a1.968,1.968,0,0,1-1.967-1.967h0a1.968,1.968,0,0,1,1.967-1.969h17.16a1.968,1.968,0,0,1,1.967,1.969h0A1.968,1.968,0,0,1,211.757,146.166Z" transform="translate(-156.889 -140.184)"/>
                <path id="Path_82" data-name="Path 82" class="cls-26" d="M211.757,154.888H194.6a1.968,1.968,0,0,1-1.967-1.967h0a1.968,1.968,0,0,1,1.967-1.967h17.16a1.968,1.968,0,0,1,1.967,1.967h0A1.968,1.968,0,0,1,211.757,154.888Z" transform="translate(-156.889 -138.674)"/>
                <path id="Path_83" data-name="Path 83" class="cls-26" d="M211.757,162.94H194.6a1.968,1.968,0,0,1-1.967-1.969h0A1.968,1.968,0,0,1,194.6,159h17.16a1.968,1.968,0,0,1,1.967,1.967h0A1.968,1.968,0,0,1,211.757,162.94Z" transform="translate(-156.889 -137.28)"/>
                <path id="Path_84" data-name="Path 84" class="cls-26" d="M194.953,185.43H168.505a2.243,2.243,0,0,1-2.243-2.243h0a2.243,2.243,0,0,1,2.243-2.243h26.448a2.243,2.243,0,0,1,2.243,2.243h0A2.243,2.243,0,0,1,194.953,185.43Z" transform="translate(-161.454 -133.481)"/>
                <path id="Path_85" data-name="Path 85" class="cls-26" d="M194.953,197.407H168.505a2.243,2.243,0,0,1-2.243-2.244h0a2.243,2.243,0,0,1,2.243-2.243h26.448a2.243,2.243,0,0,1,2.243,2.243h0A2.243,2.243,0,0,1,194.953,197.407Z" transform="translate(-161.454 -131.407)"/>
                <path id="Path_86" data-name="Path 86" class="cls-26" d="M194.953,209.383H168.505a2.243,2.243,0,0,1-2.243-2.243h0a2.243,2.243,0,0,1,2.243-2.243h26.448a2.243,2.243,0,0,1,2.243,2.243h0A2.243,2.243,0,0,1,194.953,209.383Z" transform="translate(-161.454 -129.333)"/>
                <path id="Path_87" data-name="Path 87" class="cls-26" d="M209.443,183.387a3.6,3.6,0,1,1-3.6-3.6A3.6,3.6,0,0,1,209.443,183.387Z" transform="translate(-155.224 -133.681)"/>
                <path id="Path_88" data-name="Path 88" class="cls-26" d="M209.443,195.363a3.6,3.6,0,1,1-3.6-3.6A3.6,3.6,0,0,1,209.443,195.363Z" transform="translate(-155.224 -131.607)"/>
                <path id="Path_89" data-name="Path 89" class="cls-26" d="M209.443,207.341a3.6,3.6,0,1,1-3.6-3.6A3.6,3.6,0,0,1,209.443,207.341Z" transform="translate(-155.224 -129.534)"/>
              </g>
            </g>
            <g id="Group_32" data-name="Group 32" transform="translate(376.66 12.81)">
              <rect id="Rectangle_9" data-name="Rectangle 9" class="cls-25" width="133.653" height="93.982" rx="6.642" transform="translate(0 5.274)"/>
              <path id="Path_90" data-name="Path 90" class="cls-30" d="M505.9,231.107H387.837a8.748,8.748,0,0,1-8.738-8.736v-78.4a8.748,8.748,0,0,1,8.738-8.738H505.9a8.747,8.747,0,0,1,8.736,8.738v78.4A8.747,8.747,0,0,1,505.9,231.107ZM387.837,137.125a6.857,6.857,0,0,0-6.849,6.849v78.4a6.856,6.856,0,0,0,6.849,6.848H505.9a6.855,6.855,0,0,0,6.848-6.848v-78.4a6.856,6.856,0,0,0-6.848-6.849Z" transform="translate(-375.95 -135.236)"/>
              <g id="Group_31" data-name="Group 31" transform="translate(13.342 17.553)">
                <path id="Path_91" data-name="Path 91" class="cls-36" d="M456.621,157.046H391.211a3.423,3.423,0,0,1-3.423-3.423h0a3.424,3.424,0,0,1,3.423-3.424h65.409a3.425,3.425,0,0,1,3.424,3.424h0A3.424,3.424,0,0,1,456.621,157.046Z" transform="translate(-387.788 -150.198)"/>
                <rect id="Rectangle_10" data-name="Rectangle 10" class="cls-31" width="72.258" height="38.254" rx="2.063" transform="translate(0 18.891)"/>
                <path id="Path_92" data-name="Path 92" class="cls-36" d="M479.413,157.046H460.05a3.424,3.424,0,0,1-3.424-3.423h0a3.425,3.425,0,0,1,3.424-3.424h19.363a3.425,3.425,0,0,1,3.424,3.424h0A3.424,3.424,0,0,1,479.413,157.046Z" transform="translate(-375.868 -150.198)"/>
                <path id="Path_93" data-name="Path 93" class="cls-36" d="M480.474,172.161H460.127A2.125,2.125,0,0,1,458,170.036h0a2.125,2.125,0,0,1,2.125-2.125h20.347a2.125,2.125,0,0,1,2.126,2.125h0A2.125,2.125,0,0,1,480.474,172.161Z" transform="translate(-375.63 -147.131)"/>
                <path id="Path_94" data-name="Path 94" class="cls-36" d="M480.474,180.348H460.127A2.126,2.126,0,0,1,458,178.222h0a2.125,2.125,0,0,1,2.125-2.126h20.347a2.125,2.125,0,0,1,2.126,2.126h0A2.126,2.126,0,0,1,480.474,180.348Z" transform="translate(-375.63 -145.714)"/>
                <path id="Path_95" data-name="Path 95" class="cls-36" d="M480.474,188.532H460.127A2.125,2.125,0,0,1,458,186.407h0a2.125,2.125,0,0,1,2.125-2.125h20.347a2.125,2.125,0,0,1,2.126,2.125h0A2.125,2.125,0,0,1,480.474,188.532Z" transform="translate(-375.63 -144.296)"/>
                <path id="Path_96" data-name="Path 96" class="cls-36" d="M480.474,196.719H460.127A2.126,2.126,0,0,1,458,194.593h0a2.125,2.125,0,0,1,2.125-2.126h20.347a2.125,2.125,0,0,1,2.126,2.126h0A2.126,2.126,0,0,1,480.474,196.719Z" transform="translate(-375.63 -142.879)"/>
                <path id="Path_97" data-name="Path 97" class="cls-36" d="M476.919,212.493H401.591a2.834,2.834,0,0,1-2.834-2.833h0a2.835,2.835,0,0,1,2.834-2.834h75.327a2.834,2.834,0,0,1,2.833,2.834h0A2.833,2.833,0,0,1,476.919,212.493Z" transform="translate(-385.888 -140.393)"/>
              </g>
            </g>
            <g id="Group_34" data-name="Group 34" transform="translate(0 122.369)">
              <path id="Rectangle_11" data-name="Rectangle 11" class="cls-25" d="M5.367,0H119a5.368,5.368,0,0,1,5.368,5.368V74.919A5.367,5.367,0,0,1,119,80.286H5.367A5.367,5.367,0,0,1,0,74.919V5.367A5.367,5.367,0,0,1,5.367,0Z" transform="translate(5.529 5.59)"/>
              <path id="Path_98" data-name="Path 98" class="cls-30" d="M174.362,310.8H62.591a7.25,7.25,0,0,1-7.242-7.241V235.866a7.25,7.25,0,0,1,7.242-7.241H174.362a7.25,7.25,0,0,1,7.242,7.241v67.693A7.25,7.25,0,0,1,174.362,310.8ZM62.591,230.514a5.359,5.359,0,0,0-5.353,5.352v67.693a5.357,5.357,0,0,0,5.353,5.351H174.362a5.356,5.356,0,0,0,5.352-5.351V235.866a5.358,5.358,0,0,0-5.352-5.352Z" transform="translate(-55.349 -228.625)"/>
              <g id="Group_33" data-name="Group 33" class="cls-33" transform="translate(22.139 15.299)">
                <path id="Path_99" data-name="Path 99" class="cls-34" d="M102.248,269.02a16.032,16.032,0,1,1-6.2-26.5L90.913,257.7Z" transform="translate(-74.104 -241.666)"/>
                <path id="Path_100" data-name="Path 100" class="cls-35" d="M106.026,256.187a13.506,13.506,0,0,1-3.995,9.611l-9.626-9.611,4.363-12.9A13.617,13.617,0,0,1,106.026,256.187Z" transform="translate(-71.072 -241.385)"/>
                <path id="Path_101" data-name="Path 101" class="cls-26" d="M155.605,274.528H118.768v-31.1a.944.944,0,1,1,1.889,0v29.21h34.948a.944.944,0,1,1,0,1.889Z" transform="translate(-66.507 -241.524)"/>
                <rect id="Rectangle_12" data-name="Rectangle 12" class="cls-26" width="4.723" height="14.133" transform="translate(59.975 16.981)"/>
                <rect id="Rectangle_13" data-name="Rectangle 13" class="cls-35" width="4.723" height="21.303" transform="translate(69.735 9.811)"/>
                <rect id="Rectangle_14" data-name="Rectangle 14" class="cls-26" width="4.723" height="10.652" transform="translate(79.338 20.463)"/>
                <rect id="Rectangle_15" data-name="Rectangle 15" class="cls-26" width="25.503" height="3.306" rx="1.409" transform="translate(0 44.129)"/>
                <rect id="Rectangle_16" data-name="Rectangle 16" class="cls-26" width="25.503" height="3.306" rx="1.409" transform="translate(33.843 44.129)"/>
                <rect id="Rectangle_17" data-name="Rectangle 17" class="cls-26" width="25.503" height="3.306" rx="1.409" transform="translate(65.642 44.129)"/>
                <path id="Path_102" data-name="Path 102" class="cls-26" d="M110.482,292.652h-22.2A1.653,1.653,0,0,1,86.633,291h0a1.653,1.653,0,0,1,1.653-1.653h22.2A1.653,1.653,0,0,1,112.135,291h0A1.652,1.652,0,0,1,110.482,292.652Z" transform="translate(-72.071 -233.41)"/>
                <path id="Path_103" data-name="Path 103" class="cls-26" d="M137.589,292.652h-22.2A1.653,1.653,0,0,1,113.739,291h0a1.653,1.653,0,0,1,1.653-1.653h22.2A1.653,1.653,0,0,1,139.242,291h0A1.653,1.653,0,0,1,137.589,292.652Z" transform="translate(-67.378 -233.41)"/>
              </g>
            </g>
          </g>
        </g>
      </g>
    </g>
  </g>
</svg>
